<mxfile host="app.diagrams.net" modified="2023-06-13T08:22:03.680Z" agent="Mozilla/5.0 (Windows NT 10.0; Win64; x64) AppleWebKit/537.36 (KHTML, like Gecko) Chrome/89.0.4389.90 Safari/537.36" version="21.3.5" etag="GyWsCmKtalgdZWloWcXf" type="github">
  <diagram name="第 1 页" id="AyBgRI-KUPs6ClPqWyEx">
    <mxGraphModel>
      <root>
        <mxCell id="0" />
        <mxCell id="1" parent="0" />
      </root>
    </mxGraphModel>
  </diagram>
</mxfile>
